<svg xmlns="http://www.w3.org/2000/svg" viewBox="0 0 100 100" fill="none"><path d="M15 20C15 14 20 10 25 10H75C80 10 85 14 85 20V60C85 66 80 70 75 70H45L25 88V70H25C20 70 15 66 15 60V20Z" fill="#3B82F6" opacity="0.15"/><path d="M15 20C15 14 20 10 25 10H75C80 10 85 14 85 20V60C85 66 80 70 75 70H45L25 88V70H25C20 70 15 66 15 60V20Z" stroke="#3B82F6" stroke-width="3" fill="none"/><circle cx="38" cy="40" r="4" fill="#3B82F6"/><circle cx="54" cy="40" r="4" fill="#3B82F6"/><circle cx="70" cy="40" r="4" fill="#3B82F6"/></svg>
