<svg xmlns="http://www.w3.org/2000/svg" viewBox="0 0 100 100" fill="none"><path d="M50 10L55 40H85L60 58L70 90L50 72L30 90L40 58L15 40H45L50 10Z" fill="#0095b6" opacity="0.15"/><polygon points="50,15 53,42 80,42 58,57 67,85 50,70 33,85 42,57 20,42 47,42" fill="none" stroke="#0095b6" stroke-width="3"/><line x1="50" y1="5" x2="50" y2="15" stroke="#0095b6" stroke-width="2" stroke-linecap="round"/><line x1="80" y1="20" x2="88" y2="12" stroke="#0095b6" stroke-width="2" stroke-linecap="round"/><line x1="20" y1="20" x2="12" y2="12" stroke="#0095b6" stroke-width="2" stroke-linecap="round"/><line x1="90" y1="55" x2="98" y2="55" stroke="#0095b6" stroke-width="2" stroke-linecap="round"/><line x1="10" y1="55" x2="2" y2="55" stroke="#0095b6" stroke-width="2" stroke-linecap="round"/></svg>
