<!DOCTYPE svg PUBLIC "-//W3C//DTD SVG 1.1//EN" "http://www.w3.org/Graphics/SVG/1.1/DTD/svg11.dtd">
<!-- Uploaded to: SVG Repo, www.svgrepo.com, Transformed by: SVG Repo Mixer Tools -->
<svg width="800px" height="800px" viewBox="-4.8 -4.8 57.60 57.60" xmlns="http://www.w3.org/2000/svg" fill="#0095b6">
<g id="SVGRepo_bgCarrier" stroke-width="0">
<path transform="translate(-4.8, -4.8), scale(1.7999999999999998)" d="M16,31.307211801213654C19.466246194574126,32.509493328772734,23.47304609806897,30.610135639541078,26.198181372966623,28.153719289160325C28.86533319965384,25.749568780973743,30.17145984155942,22.095061269046024,30.203336625212316,18.504431463109647C30.231759454372046,15.302858222181277,28.14054080330063,12.67950634983499,26.35917610365436,10.01912688797242C24.724630120679493,7.578013867466401,23.17338240339754,4.8808881995774716,20.411191633321987,3.880350594560692C17.651415230293413,2.880687536316346,14.731428633811618,3.947100350191584,11.91940812699341,4.788665970904345C8.889472655622498,5.6954479518682986,5.4911258519214465,6.294177611908804,3.680596012558416,8.887388791594844C1.7936711634562987,11.590020091855822,0.9759855548778145,15.431517002617303,2.420072967230558,18.394507531929495C3.783535336974211,21.192070930146542,8.144526380832161,20.5294933576862,10.399846618502647,22.674002911478077C12.962920818440836,25.111145547382534,12.658489227998647,30.148195260032715,16,31.307211801213654" fill="#ffb703" strokewidth="0"/>
</g>
<g id="SVGRepo_tracerCarrier" stroke-linecap="round" stroke-linejoin="round"/>
<g id="SVGRepo_iconCarrier"> <title>ai</title> <g id="Layer_2" data-name="Layer 2"> <g id="invisible_box" data-name="invisible box"> <rect width="48" height="48" fill="none"/> </g> <g id="Q3_icons" data-name="Q3 icons"> <g> <path d="M45.6,18.7,41,14.9V7.5a1,1,0,0,0-.6-.9L30.5,2.1h-.4l-.6.2L24,5.9,18.5,2.2,17.9,2h-.4L7.6,6.6a1,1,0,0,0-.6.9v7.4L2.4,18.7a.8.8,0,0,0-.4.8v9H2a.8.8,0,0,0,.4.8L7,33.1v7.4a1,1,0,0,0,.6.9l9.9,4.5h.4l.6-.2L24,42.1l5.5,3.7.6.2h.4l9.9-4.5a1,1,0,0,0,.6-.9V33.1l4.6-3.8a.8.8,0,0,0,.4-.7V19.4h0A.8.8,0,0,0,45.6,18.7Zm-5.1,6.8H42v1.6l-3.5,2.8-.4.3-.4-.2a1.4,1.4,0,0,0-2,.7,1.5,1.5,0,0,0,.6,2l.7.3h0v5.4l-6.6,3.1-4.2-2.8-.7-.5V25.5H27a1.5,1.5,0,0,0,0-3H25.5V9.7l.7-.5,4.2-2.8L37,9.5v5.4h0l-.7.3a1.5,1.5,0,0,0-.6,2,1.4,1.4,0,0,0,1.3.9l.7-.2.4-.2.4.3L42,20.9v1.6H40.5a1.5,1.5,0,0,0,0,3ZM21,25.5h1.5V38.3l-.7.5-4.2,2.8L11,38.5V33.1h0l.7-.3a1.5,1.5,0,0,0,.6-2,1.4,1.4,0,0,0-2-.7l-.4.2-.4-.3L6,27.1V25.5H7.5a1.5,1.5,0,0,0,0-3H6V20.9l3.5-2.8.4-.3.4.2.7.2a1.4,1.4,0,0,0,1.3-.9,1.5,1.5,0,0,0-.6-2L11,15h0V9.5l6.6-3.1,4.2,2.8.7.5V22.5H21a1.5,1.5,0,0,0,0,3Z"/> <path d="M13.9,9.9a1.8,1.8,0,0,0,0,2.2l2.6,2.5v2.8l-4,4v5.2l4,4v2.8l-2.6,2.5a1.8,1.8,0,0,0,0,2.2,1.5,1.5,0,0,0,1.1.4,1.5,1.5,0,0,0,1.1-.4l3.4-3.5V29.4l-4-4V22.6l4-4V13.4L16.1,9.9A1.8,1.8,0,0,0,13.9,9.9Z"/> <path d="M31.5,14.6l2.6-2.5a1.8,1.8,0,0,0,0-2.2,1.8,1.8,0,0,0-2.2,0l-3.4,3.5v5.2l4,4v2.8l-4,4v5.2l3.4,3.5a1.7,1.7,0,0,0,2.2,0,1.8,1.8,0,0,0,0-2.2l-2.6-2.5V30.6l4-4V21.4l-4-4Z"/> </g> </g> </g> </g>
</svg>